Coordinates
version=1
nRows=10
nColumns=46
inDegrees=yes

Units are S.I. units (second, meters, Newtons, ...)
Angles are in degrees.

endheader
time	pelvis_tilt	pelvis_list	pelvis_rotation	pelvis_tx	pelvis_ty	pelvis_tz	bb_angle	bb_tx	bb_ty	bb_tz	hip_flexion_r	hip_adduction_r	hip_rotation_r	knee_angle_r	knee_angle_r_beta	ankle_angle_r	subtalar_angle_r	mtp_angle_r	crank_angle_r	hip_flexion_l	hip_adduction_l	hip_rotation_l	knee_angle_l	knee_angle_l_beta	ankle_angle_l	subtalar_angle_l	mtp_angle_l	crank_angle_l	lumbar_extension	lumbar_bending	lumbar_rotation	arm_flex_r	arm_add_r	arm_rot_r	elbow_flex_r	pro_sup_r	wrist_flex_r	wrist_dev_r	arm_flex_l	arm_add_l	arm_rot_l	elbow_flex_l	pro_sup_l	wrist_flex_l	wrist_dev_l
      5.00000000	    -34.43578028	      3.71292696	     -2.58878141	      0.29423417	      1.04449310	     -0.21714289	      0.00000000	      0.50000000	      0.00000000	      0.25000000	     73.80482837	     -5.33094835	      3.49973688	     65.18105533	      1.13762403	     11.47384693	     -1.96756381	      0.00000000	      0.00000000	     55.69224648	     -4.18401950	     -0.16586818	     70.16627396	      1.22463250	    -32.46936607	     -6.57758748	      0.00000000	      0.00000000	    -36.11181999	     -3.11013456	     -7.25703098	     57.22832287	    -13.07768930	     50.08151742	     58.62810176	     56.27420874	      0.00000000	      0.00000000	     33.40905437	    -29.36138144	     14.69973649	     83.41091386	     50.41205273	      0.00000000	      0.00000000
      5.00500000	    -34.35416325	      3.61198079	     -1.71615584	      0.29483743	      1.04417295	     -0.21694122	      0.00000000	      0.50000000	      0.00000000	      0.25000000	     71.32770471	     -5.73201131	      3.20160194	     61.67421404	      1.07641810	     11.16143765	     -3.21206792	      0.00000000	      0.00000000	     57.12820956	     -3.59498982	      0.69252906	     72.69044452	      1.26868759	    -32.69853392	     -6.81787558	      0.00000000	      0.00000000	    -36.01811347	     -2.80656189	     -7.90101624	     56.57757792	    -12.45729454	     49.24504918	     58.24421308	     56.05866515	      0.00000000	      0.00000000	     33.67019867	    -29.87496384	     15.50268656	     83.28025459	     50.46751948	      0.00000000	      0.00000000
      5.01000000	    -34.30651955	      3.37741054	     -0.88398670	      0.29548785	      1.04337060	     -0.21677389	      0.00000000	      0.50000000	      0.00000000	      0.25000000	     68.91405087	     -5.99079362	      2.81536662	     58.22687837	      1.01625074	     10.29305903	     -4.47126273	      0.00000000	      0.00000000	     58.63915252	     -3.10876647	      1.62861051	     75.32676131	      1.31470000	    -32.65269785	     -6.94157918	      0.00000000	      0.00000000	    -35.86321699	     -2.35809625	     -8.45874112	     55.85534204	    -11.58361791	     47.72104669	     57.63032643	     55.70409891	      0.00000000	      0.00000000	     33.87198666	    -30.40289288	     16.55997227	     83.04120432	     50.53279057	      0.00000000	      0.00000000
      5.01500000	    -34.31400134	      3.31456538	     -0.16172176	      0.29623097	      1.04240175	     -0.21645080	      0.00000000	      0.50000000	      0.00000000	      0.25000000	     66.61671518	     -6.20244267	      2.66367795	     54.80852183	      0.95658916	      9.21154764	     -6.02287361	      0.00000000	      0.00000000	     60.10032675	     -2.60031478	      2.24492654	     77.84142280	      1.35858912	    -32.28519143	     -7.10580702	      0.00000000	      0.00000000	    -35.57757903	     -2.23507099	     -8.92660371	     54.12449715	     -9.43859426	     43.07422925	     56.22452069	     54.74442306	      0.00000000	      0.00000000	     34.54226238	    -31.63918009	     19.04159562	     82.68466211	     50.73684040	      0.00000000	      0.00000000
      5.02000000	    -34.19939542	      3.17301100	      0.78913164	      0.29643567	      1.04119660	     -0.21629426	      0.00000000	      0.50000000	      0.00000000	      0.25000000	     64.41177807	     -6.66849258	      2.35400853	     51.86707070	      0.90525116	      8.45649435	     -6.29079114	      0.00000000	      0.00000000	     61.56044764	     -1.86948077	      3.06850535	     80.41660548	      1.40353454	    -31.95812090	     -7.59109899	      0.00000000	      0.00000000	    -35.49383117	     -1.89673804	     -9.33214120	     52.63713115	     -8.68204025	     39.92450938	     56.79191214	     54.27762608	      0.00000000	      0.00000000	     35.31920431	    -32.47215336	     20.93887288	     82.56998889	     50.92073499	      0.00000000	      0.00000000
      5.02500000	    -34.04849110	      3.00316849	      1.70383995	      0.29679544	      1.03988699	     -0.21641878	      0.00000000	      0.50000000	      0.00000000	      0.25000000	     62.20665550	     -7.14237686	      1.91806032	     49.06995042	      0.85643220	      7.66870841	     -6.66620424	      0.00000000	      0.00000000	     62.98380807	     -1.13758581	      3.85258857	     83.03997422	      1.44932096	    -31.32297509	     -8.04192601	      0.00000000	      0.00000000	    -35.38762222	     -1.46981124	     -9.89790500	     52.13571264	     -8.47308576	     39.54692183	     56.82118108	     54.20404178	      0.00000000	      0.00000000	     35.49177581	    -32.68273460	     21.29651704	     82.42646055	     50.92546516	      0.00000000	      0.00000000
      5.03000000	    -34.08020333	      2.74267719	      2.53336760	      0.29687974	      1.03807410	     -0.21638857	      0.00000000	      0.50000000	      0.00000000	      0.25000000	     60.20551926	     -7.36078983	      1.52739726	     46.24186621	      0.80707282	      6.47243222	     -7.59759917	      0.00000000	      0.00000000	     64.68293631	     -0.59623466	      4.63248299	     85.71454878	      1.49600109	    -30.40104898	     -8.01375992	      0.00000000	      0.00000000	    -35.06040231	     -1.02786411	    -10.43578708	     51.53110572	     -7.86376193	     37.85134406	     56.79606447	     53.93834208	      0.00000000	      0.00000000	     35.74532737	    -33.42814079	     22.36799819	     82.41444231	     51.02553337	      0.00000000	      0.00000000
      5.03500000	    -34.00660518	      2.59191081	      3.37761087	      0.29698559	      1.03637255	     -0.21653073	      0.00000000	      0.50000000	      0.00000000	      0.25000000	     58.14101019	     -7.66420192	      1.26633305	     43.55970313	      0.76026024	      5.19579176	     -8.18450536	      0.00000000	      0.00000000	     66.22100174	      0.08820752	      5.30495987	     88.32277523	      1.54152323	    -29.16274934	     -8.07232134	      0.00000000	      0.00000000	    -34.82571476	     -0.74096419	    -10.89357276	     50.41560763	     -6.76397392	     34.94761272	     56.61664985	     53.47995927	      0.00000000	      0.00000000	     36.44151848	    -34.39131166	     24.39466968	     82.43750962	     51.22387130	      0.00000000	      0.00000000
      5.04000000	    -33.93220556	      2.48632491	      4.23333855	      0.29706431	      1.03449211	     -0.21677849	      0.00000000	      0.50000000	      0.00000000	      0.25000000	     56.14944573	     -8.06607693	      0.91073894	     41.03806406	      0.71624934	      4.19494685	     -8.03453291	      0.00000000	      0.00000000	     67.74679858	      0.89179520	      5.95579967	     90.90350415	      1.58656545	    -27.94429485	     -8.51684223	      0.00000000	      0.00000000	    -34.57075296	     -0.50832211	    -11.41692209	     49.67575056	     -6.56286732	     34.86444784	     56.56299877	     53.44301834	      0.00000000	      0.00000000	     36.69102701	    -34.40933639	     24.67389913	     82.37907888	     51.22985218	      0.00000000	      0.00000000
      5.04500000	    -33.85198695	      2.40939978	      5.05186052	      0.29713565	      1.03252026	     -0.21705675	      0.00000000	      0.50000000	      0.00000000	      0.25000000	     54.20936448	     -8.42970776	      0.61386344	     38.65507655	      0.67465836	      3.10124165	     -8.08417410	      0.00000000	      0.00000000	     69.29938242	      1.56878964	      6.36913450	     93.43503562	      1.63074901	    -26.62785495	     -8.76506981	      0.00000000	      0.00000000	    -34.29450559	     -0.17131576	    -11.92341482	     49.24881579	     -6.46732787	     34.60821586	     56.54579235	     53.39300510	      0.00000000	      0.00000000	     36.90050339	    -34.66866533	     25.03559326	     82.34267523	     51.25045327	      0.00000000	      0.00000000
